<svg width="132" height="32" viewBox="0 0 132 32" fill="none" xmlns="http://www.w3.org/2000/svg">
<g clip-path="url(#clip0_4050_37843)">
<path d="M9.51562 19.5942V12.4907C9.81509 8.07631 10.8978 6.74023 16.5491 6.74023H22.7034C25.7467 6.74023 27.4374 8.56685 27.4374 11.2729C27.4374 14.2496 24.9351 16.6175 21.9594 16.6175H17.3606C14.3849 16.6175 11.6121 17.6999 9.51562 19.5942Z" fill="#111211"/>
<path d="M9.61024 25.2544C9.57555 22.8165 10.8021 20.9702 12.8269 19.6113C13.8723 18.9314 15.1853 18.5248 16.5697 18.5051L17.7564 18.4882L17.7966 21.314C17.8313 23.7519 15.5515 25.7241 12.6507 25.7653L10.9366 25.7897C10.1455 25.801 9.61498 25.5869 9.61024 25.2544Z" fill="#111211"/>
<rect x="5.59961" y="3.09961" width="26" height="26" rx="6.88" fill="#111211"/>
<path d="M9.54688 19.7212V12.5626C9.84866 8.11401 10.9397 6.76758 16.6349 6.76758H22.8368C25.9037 6.76758 27.6076 8.60835 27.6076 11.3354C27.6076 14.3352 25.0859 16.7214 22.0871 16.7214H17.4527C14.4539 16.7214 11.6596 17.8122 9.54688 19.7212Z" fill="#F3FDD8"/>
<path d="M9.64223 25.4251C9.60727 22.9682 10.8433 21.1077 12.8838 19.7382C13.9373 19.0531 15.2605 18.6433 16.6556 18.6234L17.8515 18.6064L17.892 21.4541C17.927 23.911 15.6295 25.8984 12.7063 25.94L10.9789 25.9646C10.1817 25.9759 9.647 25.7601 9.64223 25.4251Z" fill="#DFFF55"/>
</g>
<path d="M42.6646 23V8.45455H48.4032C49.5065 8.45455 50.4463 8.66525 51.2228 9.08665C51.9993 9.50331 52.5912 10.0833 52.9984 10.8267C53.4103 11.5653 53.6163 12.4176 53.6163 13.3835C53.6163 14.3494 53.408 15.2017 52.9913 15.9403C52.5746 16.679 51.9709 17.2543 51.1802 17.6662C50.3942 18.0781 49.4425 18.2841 48.3251 18.2841H44.6674V15.8196H47.8279C48.4198 15.8196 48.9075 15.7178 49.291 15.5142C49.6793 15.3059 49.9681 15.0194 50.1575 14.6548C50.3516 14.2855 50.4487 13.8617 50.4487 13.3835C50.4487 12.9006 50.3516 12.4792 50.1575 12.1193C49.9681 11.7547 49.6793 11.473 49.291 11.2741C48.9028 11.0705 48.4103 10.9688 47.8137 10.9688H45.7399V23H42.6646ZM58.3748 23.206C57.6788 23.206 57.0585 23.0852 56.514 22.8438C55.9695 22.5975 55.5386 22.2353 55.2214 21.7571C54.9089 21.2741 54.7527 20.6728 54.7527 19.9531C54.7527 19.3471 54.8639 18.8381 55.0865 18.4261C55.309 18.0142 55.612 17.6828 55.9956 17.4318C56.3791 17.1809 56.8147 16.9915 57.3024 16.8636C57.7948 16.7358 58.3109 16.6458 58.8507 16.5938C59.4851 16.5275 59.9965 16.4659 60.3848 16.4091C60.773 16.3475 61.0547 16.2576 61.2299 16.1392C61.4051 16.0208 61.4927 15.8456 61.4927 15.6136V15.571C61.4927 15.1212 61.3507 14.7732 61.0666 14.527C60.7872 14.2808 60.3895 14.1577 59.8734 14.1577C59.3289 14.1577 58.8957 14.2784 58.5737 14.5199C58.2517 14.7566 58.0386 15.0549 57.9345 15.4148L55.1362 15.1875C55.2783 14.5246 55.5576 13.9517 55.9743 13.4688C56.3909 12.9811 56.9283 12.607 57.5865 12.3466C58.2493 12.0814 59.0164 11.9489 59.8876 11.9489C60.4937 11.9489 61.0737 12.0199 61.6277 12.1619C62.1864 12.304 62.6812 12.5241 63.112 12.8224C63.5476 13.1207 63.8909 13.5043 64.1419 13.973C64.3928 14.437 64.5183 14.9934 64.5183 15.642V23H61.649V21.4872H61.5637C61.3886 21.8281 61.1542 22.1288 60.8606 22.3892C60.567 22.6449 60.2143 22.8461 59.8024 22.9929C59.3904 23.1349 58.9146 23.206 58.3748 23.206ZM59.2413 21.1179C59.6864 21.1179 60.0794 21.0303 60.4203 20.8551C60.7612 20.6752 61.0287 20.4337 61.2228 20.1307C61.417 19.8277 61.514 19.4844 61.514 19.1009V17.9432C61.4193 18.0047 61.2891 18.0616 61.1234 18.1136C60.9624 18.161 60.7809 18.206 60.5765 18.2486C60.3729 18.2865 60.1693 18.322 59.9657 18.3551C59.7621 18.3835 59.5775 18.4096 59.4118 18.4332C59.0566 18.4853 58.7465 18.5682 58.4814 18.6818C58.2162 18.7955 58.0102 18.9493 57.8635 19.1435C57.7167 19.3329 57.6433 19.5696 57.6433 19.8537C57.6433 20.2656 57.7924 20.5805 58.0907 20.7983C58.3938 21.0114 58.7773 21.1179 59.2413 21.1179ZM72.6681 12.0909V14.3636H66.0985V12.0909H72.6681ZM67.59 9.47727H70.6156V19.6477C70.6156 19.9271 70.6582 20.1449 70.7434 20.3011C70.8287 20.4527 70.947 20.5592 71.0985 20.6207C71.2548 20.6823 71.4345 20.7131 71.6383 20.7131C71.7804 20.7131 71.9224 20.7012 72.0645 20.6776C72.2065 20.6491 72.3154 20.6278 72.3912 20.6136L72.867 22.8651C72.7155 22.9124 72.5024 22.9669 72.2278 23.0284C71.9532 23.0947 71.6194 23.1349 71.2264 23.1491C70.4972 23.1776 69.858 23.0805 69.3088 22.858C68.7643 22.6354 68.3405 22.2898 68.0375 21.821C67.7344 21.3523 67.5853 20.7604 67.59 20.0455V9.47727ZM77.899 16.6932V23H74.8734V8.45455H77.8137V14.0156H77.9416C78.1878 13.3717 78.5855 12.8674 79.1348 12.5028C79.684 12.1335 80.3729 11.9489 81.2015 11.9489C81.9591 11.9489 82.6196 12.1146 83.1831 12.446C83.7512 12.7727 84.1916 13.2438 84.5041 13.8594C84.8213 14.4702 84.9776 15.2017 84.9728 16.054V23H81.9473V16.5938C81.952 15.9214 81.7815 15.3982 81.4359 15.0241C81.095 14.6501 80.6168 14.4631 80.0012 14.4631C79.5893 14.4631 79.2247 14.5507 78.9075 14.7259C78.595 14.901 78.3488 15.1567 78.1689 15.4929C77.9937 15.8243 77.9037 16.2244 77.899 16.6932ZM89.5059 23L86.5371 12.0909H89.5982L91.2885 19.4205H91.388L93.1493 12.0909H96.1536L97.9434 19.3778H98.0357L99.6976 12.0909H102.752L99.79 23H96.5868L94.7118 16.1392H94.5769L92.7019 23H89.5059ZM107.476 23.206C106.78 23.206 106.16 23.0852 105.616 22.8438C105.071 22.5975 104.64 22.2353 104.323 21.7571C104.01 21.2741 103.854 20.6728 103.854 19.9531C103.854 19.3471 103.965 18.8381 104.188 18.4261C104.411 18.0142 104.714 17.6828 105.097 17.4318C105.481 17.1809 105.916 16.9915 106.404 16.8636C106.896 16.7358 107.412 16.6458 107.952 16.5938C108.587 16.5275 109.098 16.4659 109.486 16.4091C109.875 16.3475 110.156 16.2576 110.331 16.1392C110.507 16.0208 110.594 15.8456 110.594 15.6136V15.571C110.594 15.1212 110.452 14.7732 110.168 14.527C109.889 14.2808 109.491 14.1577 108.975 14.1577C108.43 14.1577 107.997 14.2784 107.675 14.5199C107.353 14.7566 107.14 15.0549 107.036 15.4148L104.238 15.1875C104.38 14.5246 104.659 13.9517 105.076 13.4688C105.492 12.9811 106.03 12.607 106.688 12.3466C107.351 12.0814 108.118 11.9489 108.989 11.9489C109.595 11.9489 110.175 12.0199 110.729 12.1619C111.288 12.304 111.783 12.5241 112.214 12.8224C112.649 13.1207 112.992 13.5043 113.243 13.973C113.494 14.437 113.62 14.9934 113.62 15.642V23H110.751V21.4872H110.665C110.49 21.8281 110.256 22.1288 109.962 22.3892C109.669 22.6449 109.316 22.8461 108.904 22.9929C108.492 23.1349 108.016 23.206 107.476 23.206ZM108.343 21.1179C108.788 21.1179 109.181 21.0303 109.522 20.8551C109.863 20.6752 110.13 20.4337 110.324 20.1307C110.519 19.8277 110.616 19.4844 110.616 19.1009V17.9432C110.521 18.0047 110.391 18.0616 110.225 18.1136C110.064 18.161 109.882 18.206 109.678 18.2486C109.474 18.2865 109.271 18.322 109.067 18.3551C108.864 18.3835 108.679 18.4096 108.513 18.4332C108.158 18.4853 107.848 18.5682 107.583 18.6818C107.318 18.7955 107.112 18.9493 106.965 19.1435C106.818 19.3329 106.745 19.5696 106.745 19.8537C106.745 20.2656 106.894 20.5805 107.192 20.7983C107.495 21.0114 107.879 21.1179 108.343 21.1179ZM117.444 27.0909C117.061 27.0909 116.701 27.0601 116.365 26.9986C116.033 26.9418 115.759 26.8684 115.541 26.7784L116.223 24.5199C116.578 24.6288 116.898 24.688 117.182 24.6974C117.47 24.7069 117.719 24.6406 117.927 24.4986C118.14 24.3565 118.313 24.1151 118.446 23.7741L118.623 23.3125L114.71 12.0909H117.892L120.15 20.1023H120.264L122.544 12.0909H125.747L121.507 24.179C121.303 24.7661 121.026 25.2775 120.676 25.7131C120.33 26.1534 119.892 26.492 119.362 26.7287C118.832 26.9702 118.193 27.0909 117.444 27.0909Z" fill="#111211"/>
<defs>
<clipPath id="clip0_4050_37843">
<rect x="5.59961" y="3.09961" width="25.8" height="25.8" rx="6.88" fill="white"/>
</clipPath>
</defs>
</svg>
